<svg xmlns="http://www.w3.org/2000/svg" width="20" height="20" viewBox="0 0 1329 1618" stroke-linejoin="round"><g transform="matrix(1 0 0 1 -951.362 -434.432)"><path d="M2066.7 916L2200.9 1416.8C2203.6 1427.2 2200.7 1438.2 2193.1 1445.8L1757.3 1881.5C1749.8 1889.1 1738.7 1892.1 1728.4 1889.3 1639.3 1865.5 1222.1 1753.7 1133.1 1729.8 1122.7 1727 1114.7 1719 1111.9 1708.6 1088 1619.6 976.2 1202.4 952.4 1113.3 949.6 1103 952.6 1091.9 960.1 1084.4 1025.3 1019.2 1330.8 713.8 1395.9 648.6 1403.5 641 1414.5 638.1 1424.9 640.8L1495.8 659.8 1402.5 943.8 1409.5 948.4C1264.9 1024.6 1186.7 1193.3 1230.8 1357.7 1281.9 1548.6 1478.4 1662.1 1669.3 1610.9 1847.9 1563 1958.8 1387.8 1930.3 1209.1L2034.1 1086.8 1959.2 1037.3 2066.7 916Z" fill="#FF5200"/><path d="M1299.9 1817.7L1414 1848.2 1210.1 2051.7 1299.9 1817.7ZM1337.5 1472.3L1527.9 976.7 1452 926.6 1613.7 434.4 2279.8 612.9 1896.1 1045.6 1971.9 1095.6 1580.9 1556.1 1615.7 1579.1C1509.2 1592.4 1405.3 1550.3 1337.5 1472.3Z" fill="#FFE900"/></g></svg>
