<?xml version="1.0" encoding="UTF-8" standalone="no"?>
<!DOCTYPE svg PUBLIC "-//W3C//DTD SVG 1.1//EN" "http://www.w3.org/Graphics/SVG/1.1/DTD/svg11.dtd">
<svg width="100%" height="100%" viewBox="0 0 1354 1643" version="1.1" xmlns="http://www.w3.org/2000/svg" xmlns:xlink="http://www.w3.org/1999/xlink" xml:space="preserve" xmlns:serif="http://www.serif.com/" style="fill-rule:evenodd;clip-rule:evenodd;stroke-linejoin:round;stroke-miterlimit:2;">
    <g transform="matrix(1,0,0,1,-951.362,-434.432)">
        <g id="Nut" transform="matrix(2.16985,-6.66134e-16,6.66134e-16,2.16985,-1798.43,-1056.37)">
            <g id="Nut-Extrusion" serif:id="Nut Extrusion" transform="matrix(0.46086,9.43211e-17,-4.71606e-17,0.46086,861.414,519.426)">
                <path d="M1395.9,648.609C1403.48,641.03 1414.53,638.071 1424.88,640.845C1509.14,663.423 1962.87,737.396 1962.87,737.396L2022.98,797.5C2022.98,797.5 2038.58,811.203 2041.35,821.555C2065.2,910.564 2177,1327.8 2200.85,1416.81C2203.62,1427.16 2200.66,1438.21 2193.08,1445.79L1757.33,1881.54C1749.75,1889.12 1738.7,1892.08 1728.35,1889.31C1639.34,1865.46 1222.1,1753.66 1133.1,1729.81C1122.74,1727.04 1109.04,1711.44 1109.04,1711.44L1048.94,1651.33C1048.94,1651.33 974.86,1197.22 952.385,1113.34C949.611,1102.99 952.571,1091.94 960.149,1084.37C1025.31,1019.21 1330.75,713.768 1395.9,648.609ZM1483.95,919.249C1674.82,868.106 1871.3,981.545 1922.44,1172.41C1973.59,1363.28 1860.15,1559.76 1669.28,1610.9C1478.41,1662.05 1281.93,1548.61 1230.79,1357.74C1179.65,1166.87 1293.09,970.391 1483.95,919.249Z" style="fill:rgb(255,168,127);"/>
            </g>
            <g id="Nut-Extrusion1" serif:id="Nut Extrusion" transform="matrix(0.46086,4.71606e-17,-4.71606e-17,0.46086,828.826,486.838)">
                <path d="M1117.18,1706.97L1527.82,1673.25L1814.59,1960.02C1809.59,1961.36 1804.24,1961.4 1799.06,1960.02C1710.05,1936.17 1292.81,1824.37 1203.81,1800.52C1193.45,1797.75 1179.75,1782.15 1179.75,1782.15L1119.65,1722.04C1119.65,1722.04 1118.77,1716.67 1117.18,1706.97Z" style="fill:rgb(255,151,102);"/>
            </g>
            <g id="Nut-Extrusion2" serif:id="Nut Extrusion" transform="matrix(0.46086,4.71606e-17,-4.71606e-17,0.46086,828.826,486.838)">
                <path d="M2018.25,805.595C2028.11,807.215 2033.58,808.107 2033.58,808.107L2093.69,868.211C2093.69,868.211 2109.28,881.913 2112.06,892.266C2135.91,981.274 2247.71,1398.51 2271.56,1487.52C2272.94,1492.69 2272.9,1498.05 2271.56,1503.05L2200.85,1432.34L1992.14,1239.42L2018.25,805.595Z" style="fill:rgb(255,186,153);"/>
                <clipPath id="_clip1">
                    <path d="M2018.25,805.595C2028.11,807.215 2033.58,808.107 2033.58,808.107L2093.69,868.211C2093.69,868.211 2109.28,881.913 2112.06,892.266C2135.91,981.274 2247.71,1398.51 2271.56,1487.52C2272.94,1492.69 2272.9,1498.05 2271.56,1503.05L2200.85,1432.34L1992.14,1239.42L2018.25,805.595Z"/>
                </clipPath>
                <g clip-path="url(#_clip1)">
                    <g id="Bolt-Shadow" serif:id="Bolt Shadow" transform="matrix(2.34992,0.629659,-0.629659,2.34992,-861.937,-691.847)">
                        <path d="M1125.92,197.193L1409.38,197.193L1350.6,314.763L1377.64,361.601L1338.48,338.994L1303.08,409.792L1338.52,421.603L1232.21,646.012L1161.35,657.823L1125.92,646.012L1149.54,421.603L1114.11,409.792L1125.92,197.193Z" style="fill-opacity:0.05;"/>
                    </g>
                </g>
            </g>
            <g id="Nut1" serif:id="Nut" transform="matrix(0.46086,5.76838e-17,-2.17269e-18,0.46086,841.542,516.486)">
                <path d="M1395.9,648.609C1403.48,641.03 1414.53,638.071 1424.88,640.845C1513.89,664.694 2020.13,800.342 2020.13,800.342L2127.83,1325.52L1732.34,1744.53L1090.7,1629.55C1090.7,1629.55 976.234,1202.35 952.385,1113.34C949.611,1102.99 952.571,1091.94 960.149,1084.37C1025.31,1019.21 1330.75,713.768 1395.9,648.609ZM1483.95,919.249C1674.82,868.106 1871.3,981.545 1922.44,1172.41C1973.59,1363.28 1860.15,1559.76 1669.28,1610.9C1478.41,1662.05 1281.93,1548.61 1230.79,1357.74C1179.65,1166.87 1293.09,970.391 1483.95,919.249Z" style="fill:rgb(255,151,102);"/>
            </g>
            <g id="Nut2" serif:id="Nut" transform="matrix(0.46086,8.32667e-17,-2.77556e-17,0.46086,828.826,486.838)">
                <path d="M1395.9,648.609C1403.48,641.03 1414.53,638.071 1424.88,640.845C1513.89,664.694 1931.13,776.492 2020.13,800.342C2030.49,803.116 2038.58,811.203 2041.35,821.555C2065.2,910.564 2177,1327.8 2200.85,1416.81C2203.62,1427.16 2200.66,1438.21 2193.08,1445.79L1757.33,1881.54C1749.75,1889.12 1738.7,1892.08 1728.35,1889.31C1639.34,1865.46 1222.1,1753.66 1133.1,1729.81C1122.74,1727.04 1114.66,1718.95 1111.88,1708.6C1088.03,1619.59 976.234,1202.35 952.385,1113.34C949.611,1102.99 952.571,1091.94 960.149,1084.37C1025.31,1019.21 1330.75,713.768 1395.9,648.609ZM1483.95,919.249C1674.82,868.106 1871.3,981.545 1922.44,1172.41C1973.59,1363.28 1860.15,1559.76 1669.28,1610.9C1478.41,1662.05 1281.93,1548.61 1230.79,1357.74C1179.65,1166.87 1293.09,970.391 1483.95,919.249Z" style="fill:rgb(255,82,0);"/>
                <clipPath id="_clip2">
                    <path d="M1395.9,648.609C1403.48,641.03 1414.53,638.071 1424.88,640.845C1513.89,664.694 1931.13,776.492 2020.13,800.342C2030.49,803.116 2038.58,811.203 2041.35,821.555C2065.2,910.564 2177,1327.8 2200.85,1416.81C2203.62,1427.16 2200.66,1438.21 2193.08,1445.79L1757.33,1881.54C1749.75,1889.12 1738.7,1892.08 1728.35,1889.31C1639.34,1865.46 1222.1,1753.66 1133.1,1729.81C1122.74,1727.04 1114.66,1718.95 1111.88,1708.6C1088.03,1619.59 976.234,1202.35 952.385,1113.34C949.611,1102.99 952.571,1091.94 960.149,1084.37C1025.31,1019.21 1330.75,713.768 1395.9,648.609ZM1483.95,919.249C1674.82,868.106 1871.3,981.545 1922.44,1172.41C1973.59,1363.28 1860.15,1559.76 1669.28,1610.9C1478.41,1662.05 1281.93,1548.61 1230.79,1357.74C1179.65,1166.87 1293.09,970.391 1483.95,919.249Z"/>
                </clipPath>
                <g clip-path="url(#_clip2)">
                    <g id="Bolt-Shadow1" serif:id="Bolt Shadow" transform="matrix(2.34992,0.629659,-0.629659,2.34992,-861.937,-691.847)">
                        <path d="M1125.92,197.193L1409.38,197.193L1303.08,409.792L1338.52,421.603L1232.21,646.012L1161.35,657.823L1125.92,646.012L1149.54,421.603L1114.11,409.792L1125.92,197.193Z" style="fill-opacity:0.05;"/>
                    </g>
                </g>
            </g>
        </g>
        <path d="M1296.93,1825.47L1446.39,1865.52L1234.91,2076.49L1210.07,2051.66L1296.93,1825.47ZM1613.66,434.432L2279.78,612.918L2304.61,637.756C2304.61,637.756 1860.15,1559.76 1669.28,1610.9C1478.41,1662.05 1281.93,1548.61 1230.79,1357.74C1179.65,1166.87 1613.66,434.432 1613.66,434.432Z" style="fill:none;"/>
        <clipPath id="_clip3">
            <path d="M1296.93,1825.47L1446.39,1865.52L1234.91,2076.49L1210.07,2051.66L1296.93,1825.47ZM1613.66,434.432L2279.78,612.918L2304.61,637.756C2304.61,637.756 1860.15,1559.76 1669.28,1610.9C1478.41,1662.05 1281.93,1548.61 1230.79,1357.74C1179.65,1166.87 1613.66,434.432 1613.66,434.432Z"/>
        </clipPath>
        <g clip-path="url(#_clip3)">
            <g id="Bolt-Extrusion" serif:id="Bolt Extrusion" transform="matrix(2.34992,0.629659,-0.629659,2.34992,-883.15,-713.061)">
                <path d="M1396.88,189.974L1409.38,197.193L1304.56,407.233L1326.01,414.384L1338.52,421.603L1233.46,643.377L1255.14,650.604L1267.65,657.823L1137.73,882.233L1125.22,875.013L1266.6,189.974L1396.88,189.974Z" style="fill:rgb(255,244,127);"/>
                <clipPath id="_clip4">
                    <path d="M1396.88,189.974L1409.38,197.193L1304.56,407.233L1326.01,414.384L1338.52,421.603L1233.46,643.377L1255.14,650.604L1267.65,657.823L1137.73,882.233L1125.22,875.013L1266.6,189.974L1396.88,189.974Z"/>
                </clipPath>
                <g clip-path="url(#_clip4)">
                    <g id="Nut-Shadow" serif:id="Nut Shadow" transform="matrix(0.772418,-0.445956,0.445956,0.772418,150.902,541.998)">
                        <path d="M767.07,722.012L828.558,687.504L918.637,843.524L869.77,824.658L861.675,810.638C861.675,810.638 817.787,785.298 803.48,777.038C794.198,771.679 790.692,762.927 784.786,752.698L767.07,722.012Z" style="fill-opacity:0.05;"/>
                    </g>
                </g>
            </g>
            <g id="Bolt" transform="matrix(2.34992,0.629659,-0.629659,2.34992,-907.989,-737.899)">
                <path d="M1125.92,197.193L1409.38,197.193L1303.08,409.792L1338.52,421.603L1232.21,646.012L1267.65,657.823L1137.73,882.233L1161.35,657.823L1125.92,646.012L1149.54,421.603L1114.11,409.792L1125.92,197.193Z" style="fill:rgb(255,233,0);"/>
                <clipPath id="_clip5">
                    <path d="M1125.92,197.193L1409.38,197.193L1303.08,409.792L1338.52,421.603L1232.21,646.012L1267.65,657.823L1137.73,882.233L1161.35,657.823L1125.92,646.012L1149.54,421.603L1114.11,409.792L1125.92,197.193Z"/>
                </clipPath>
                <g clip-path="url(#_clip5)">
                    <g id="Nut-Shadow1" serif:id="Nut Shadow" transform="matrix(0.772418,-0.445956,0.445956,0.772418,163.406,549.217)">
                        <path d="M767.07,722.012L828.558,687.504L918.637,843.524C918.637,843.524 849.348,803.52 803.48,777.038C794.198,771.679 790.692,762.927 784.786,752.698L767.07,722.012Z" style="fill-opacity:0.05;"/>
                    </g>
                </g>
            </g>
        </g>
    </g>
</svg>
